<?xml version="1.0" standalone="no"?>
<!DOCTYPE svg PUBLIC "-//W3C//DTD SVG 20010904//EN"
 "http://www.w3.org/TR/2001/REC-SVG-20010904/DTD/svg10.dtd">
<svg version="1.0" xmlns="http://www.w3.org/2000/svg"
 width="3335.000000pt" height="2100.000000pt" viewBox="0 0 3335.000000 2100.000000"
 preserveAspectRatio="xMidYMid meet">

<g transform="translate(0.000000,2100.000000) scale(0.100000,-0.100000)"
fill="#000000" stroke="none">
<path d="M12523 13951 c-344 -99 -739 -566 -1200 -1421 -666 -1236 -1351
-3123 -1444 -3975 -27 -254 15 -513 86 -531 45 -11 50 -3 47 73 -12 246 179
808 542 1598 213 461 603 1229 871 1715 292 527 422 747 611 1027 188 280 443
619 474 631 10 4 17 -70 35 -368 71 -1161 259 -2047 567 -2663 330 -661 793
-1064 1404 -1220 233 -60 335 -72 629 -72 271 0 360 7 620 51 504 85 975 216
1915 533 245 82 652 219 905 305 619 208 925 298 1440 420 561 134 1052 213
1555 251 273 21 829 21 1090 1 697 -55 1421 -202 2145 -436 121 -39 224 -63
325 -75 l55 -7 -70 72 c-106 108 -261 204 -610 375 -672 329 -1428 532 -2255
605 -381 33 -995 33 -1415 0 -241 -19 -713 -76 -910 -110 -470 -80 -710 -130
-1125 -231 -307 -74 -406 -101 -1070 -292 -1093 -314 -1680 -448 -2190 -502
-181 -20 -482 -19 -596 0 -285 49 -513 166 -720 370 -386 381 -627 999 -799
2047 -24 150 -58 406 -75 568 -58 551 -97 748 -182 920 -44 89 -65 118 -138
191 -124 126 -221 169 -375 168 -45 0 -107 -8 -142 -18z"/>
<path d="M11833 10609 c-279 -47 -457 -305 -399 -578 79 -373 567 -506 834
-227 181 188 183 470 5 657 -32 34 -77 72 -101 86 -92 54 -233 80 -339 62z"/>
<path d="M15558 7718 c-97 -134 -180 -243 -186 -243 -6 0 -88 106 -182 235
-94 129 -175 237 -181 238 -6 3 -8 -134 -7 -375 l3 -378 75 0 75 0 5 148 5
149 100 -136 c55 -75 103 -136 107 -136 4 0 50 60 103 133 53 72 101 134 106
135 5 2 9 -60 9 -147 l0 -151 75 0 75 0 0 385 c0 212 -2 385 -4 385 -2 0 -82
-109 -178 -242z"/>
<path d="M19280 7577 l0 -387 75 0 75 0 0 206 c0 119 4 204 9 202 5 -1 83 -73
173 -158 209 -200 264 -250 271 -250 3 0 5 170 4 378 l-2 377 -77 3 -78 3 -2
-208 -3 -208 -160 155 c-88 85 -188 181 -222 214 l-63 60 0 -387z"/>
<path d="M12293 7936 c-60 -19 -137 -71 -178 -119 -47 -55 -74 -113 -86 -187
-26 -164 59 -328 209 -402 61 -30 74 -33 162 -33 87 0 101 3 160 32 36 17 76
41 89 53 l25 21 -51 51 -51 51 -53 -27 c-75 -37 -162 -37 -231 1 -151 82 -144
314 12 392 75 38 160 33 231 -14 l36 -23 52 52 52 53 -33 28 c-60 51 -135 78
-223 82 -49 2 -96 -3 -122 -11z"/>
<path d="M13690 7937 c-67 -23 -115 -55 -168 -111 -80 -85 -97 -129 -97 -256
0 -95 3 -110 28 -163 38 -76 108 -146 182 -183 54 -26 70 -29 160 -29 87 0
107 3 157 27 111 52 192 157 218 281 32 160 -60 336 -214 412 -49 24 -74 29
-145 32 -50 1 -101 -3 -121 -10z m168 -152 c102 -30 161 -111 162 -218 0 -127
-93 -217 -225 -217 -66 0 -111 17 -153 58 -75 73 -92 168 -46 260 31 62 77
101 142 118 61 16 60 17 120 -1z"/>
<path d="M16600 7571 l0 -381 75 0 74 0 3 115 3 115 85 4 c109 5 159 26 215
88 50 55 65 97 65 178 -1 95 -58 183 -152 231 -38 20 -61 23 -205 27 l-163 4
0 -381z m300 211 c20 -9 44 -33 54 -53 18 -32 18 -41 7 -78 -17 -59 -56 -81
-143 -81 l-68 0 0 108 c0 60 3 112 7 115 13 14 109 7 143 -11z"/>
<path d="M17940 7579 c-91 -204 -166 -375 -168 -380 -2 -5 33 -9 77 -9 l81 0
25 55 24 55 128 0 129 0 27 -55 27 -55 80 0 c44 0 80 2 80 5 0 4 -41 95 -190
425 -21 47 -62 137 -90 200 -29 63 -55 118 -59 122 -3 4 -81 -159 -171 -363z
m203 -61 c15 -35 27 -66 27 -70 0 -5 -27 -8 -60 -8 -33 0 -60 3 -60 8 0 13 53
132 59 132 4 0 19 -28 34 -62z"/>
<path d="M20718 7945 c-3 -3 45 -97 106 -208 l111 -202 5 -170 5 -170 73 -3
72 -3 0 162 0 161 115 210 c63 115 115 214 115 219 0 6 -34 9 -82 7 l-83 -3
-64 -122 c-34 -68 -66 -123 -70 -123 -3 0 -35 55 -71 123 l-65 122 -80 3 c-45
1 -84 0 -87 -3z"/>
</g>
</svg>
